<?xml version="1.0" encoding="UTF-8" ?>
<svg version="1.1" width="128" height="128" xmlns="http://www.w3.org/2000/svg" shape-rendering="crispEdges">
<rect x="68" y="8" width="1" height="1" fill="#37946E" />
<rect x="69" y="8" width="1" height="1" fill="#37946E" />
<rect x="70" y="8" width="1" height="1" fill="#37946E" />
<rect x="71" y="8" width="1" height="1" fill="#37946E" />
<rect x="67" y="9" width="1" height="1" fill="#37946E" />
<rect x="68" y="9" width="1" height="1" fill="#37946E" />
<rect x="71" y="9" width="1" height="1" fill="#37946E" />
<rect x="72" y="9" width="1" height="1" fill="#37946E" />
<rect x="66" y="10" width="1" height="1" fill="#37946E" />
<rect x="67" y="10" width="1" height="1" fill="#37946E" />
<rect x="72" y="10" width="1" height="1" fill="#37946E" />
<rect x="73" y="10" width="1" height="1" fill="#37946E" />
<rect x="74" y="10" width="1" height="1" fill="#37946E" />
<rect x="33" y="11" width="1" height="1" fill="#37946E" />
<rect x="34" y="11" width="1" height="1" fill="#37946E" />
<rect x="35" y="11" width="1" height="1" fill="#37946E" />
<rect x="36" y="11" width="1" height="1" fill="#37946E" />
<rect x="65" y="11" width="1" height="1" fill="#37946E" />
<rect x="66" y="11" width="1" height="1" fill="#37946E" />
<rect x="74" y="11" width="1" height="1" fill="#37946E" />
<rect x="75" y="11" width="1" height="1" fill="#37946E" />
<rect x="32" y="12" width="1" height="1" fill="#37946E" />
<rect x="33" y="12" width="1" height="1" fill="#37946E" />
<rect x="36" y="12" width="1" height="1" fill="#37946E" />
<rect x="37" y="12" width="1" height="1" fill="#37946E" />
<rect x="64" y="12" width="1" height="1" fill="#37946E" />
<rect x="65" y="12" width="1" height="1" fill="#37946E" />
<rect x="75" y="12" width="1" height="1" fill="#37946E" />
<rect x="32" y="13" width="1" height="1" fill="#37946E" />
<rect x="37" y="13" width="1" height="1" fill="#37946E" />
<rect x="38" y="13" width="1" height="1" fill="#37946E" />
<rect x="64" y="13" width="1" height="1" fill="#37946E" />
<rect x="75" y="13" width="1" height="1" fill="#37946E" />
<rect x="31" y="14" width="1" height="1" fill="#37946E" />
<rect x="32" y="14" width="1" height="1" fill="#37946E" />
<rect x="38" y="14" width="1" height="1" fill="#37946E" />
<rect x="63" y="14" width="1" height="1" fill="#37946E" />
<rect x="64" y="14" width="1" height="1" fill="#37946E" />
<rect x="75" y="14" width="1" height="1" fill="#37946E" />
<rect x="76" y="14" width="1" height="1" fill="#37946E" />
<rect x="77" y="14" width="1" height="1" fill="#37946E" />
<rect x="78" y="14" width="1" height="1" fill="#37946E" />
<rect x="31" y="15" width="1" height="1" fill="#37946E" />
<rect x="38" y="15" width="1" height="1" fill="#37946E" />
<rect x="63" y="15" width="1" height="1" fill="#37946E" />
<rect x="78" y="15" width="1" height="1" fill="#37946E" />
<rect x="31" y="16" width="1" height="1" fill="#37946E" />
<rect x="38" y="16" width="1" height="1" fill="#37946E" />
<rect x="63" y="16" width="1" height="1" fill="#37946E" />
<rect x="78" y="16" width="1" height="1" fill="#37946E" />
<rect x="31" y="17" width="1" height="1" fill="#37946E" />
<rect x="32" y="17" width="1" height="1" fill="#37946E" />
<rect x="33" y="17" width="1" height="1" fill="#37946E" />
<rect x="36" y="17" width="1" height="1" fill="#37946E" />
<rect x="37" y="17" width="1" height="1" fill="#37946E" />
<rect x="63" y="17" width="1" height="1" fill="#37946E" />
<rect x="78" y="17" width="1" height="1" fill="#37946E" />
<rect x="33" y="18" width="1" height="1" fill="#37946E" />
<rect x="34" y="18" width="1" height="1" fill="#37946E" />
<rect x="35" y="18" width="1" height="1" fill="#37946E" />
<rect x="36" y="18" width="1" height="1" fill="#37946E" />
<rect x="63" y="18" width="1" height="1" fill="#37946E" />
<rect x="77" y="18" width="1" height="1" fill="#37946E" />
<rect x="78" y="18" width="1" height="1" fill="#37946E" />
<rect x="63" y="19" width="1" height="1" fill="#37946E" />
<rect x="64" y="19" width="1" height="1" fill="#37946E" />
<rect x="77" y="19" width="1" height="1" fill="#37946E" />
<rect x="64" y="20" width="1" height="1" fill="#37946E" />
<rect x="65" y="20" width="1" height="1" fill="#37946E" />
<rect x="66" y="20" width="1" height="1" fill="#37946E" />
<rect x="76" y="20" width="1" height="1" fill="#37946E" />
<rect x="77" y="20" width="1" height="1" fill="#37946E" />
<rect x="66" y="21" width="1" height="1" fill="#37946E" />
<rect x="67" y="21" width="1" height="1" fill="#37946E" />
<rect x="68" y="21" width="1" height="1" fill="#37946E" />
<rect x="76" y="21" width="1" height="1" fill="#37946E" />
<rect x="68" y="22" width="1" height="1" fill="#37946E" />
<rect x="69" y="22" width="1" height="1" fill="#37946E" />
<rect x="75" y="22" width="1" height="1" fill="#37946E" />
<rect x="76" y="22" width="1" height="1" fill="#37946E" />
<rect x="69" y="23" width="1" height="1" fill="#37946E" />
<rect x="70" y="23" width="1" height="1" fill="#37946E" />
<rect x="71" y="23" width="1" height="1" fill="#37946E" />
<rect x="72" y="23" width="1" height="1" fill="#37946E" />
<rect x="73" y="23" width="1" height="1" fill="#37946E" />
<rect x="74" y="23" width="1" height="1" fill="#37946E" />
<rect x="75" y="23" width="1" height="1" fill="#37946E" />
<rect x="112" y="29" width="1" height="1" fill="#AC3232" />
<rect x="113" y="29" width="1" height="1" fill="#AC3232" />
<rect x="114" y="29" width="1" height="1" fill="#AC3232" />
<rect x="111" y="30" width="1" height="1" fill="#AC3232" />
<rect x="112" y="30" width="1" height="1" fill="#AC3232" />
<rect x="113" y="30" width="1" height="1" fill="#AC3232" />
<rect x="114" y="30" width="1" height="1" fill="#AC3232" />
<rect x="115" y="30" width="1" height="1" fill="#AC3232" />
<rect x="111" y="31" width="1" height="1" fill="#AC3232" />
<rect x="112" y="31" width="1" height="1" fill="#AC3232" />
<rect x="113" y="31" width="1" height="1" fill="#AC3232" />
<rect x="114" y="31" width="1" height="1" fill="#AC3232" />
<rect x="115" y="31" width="1" height="1" fill="#AC3232" />
<rect x="111" y="32" width="1" height="1" fill="#AC3232" />
<rect x="112" y="32" width="1" height="1" fill="#AC3232" />
<rect x="113" y="32" width="1" height="1" fill="#AC3232" />
<rect x="114" y="32" width="1" height="1" fill="#AC3232" />
<rect x="115" y="32" width="1" height="1" fill="#AC3232" />
<rect x="112" y="33" width="1" height="1" fill="#AC3232" />
<rect x="113" y="33" width="1" height="1" fill="#AC3232" />
<rect x="114" y="33" width="1" height="1" fill="#AC3232" />
<rect x="86" y="40" width="1" height="1" fill="#AC3232" />
<rect x="87" y="40" width="1" height="1" fill="#AC3232" />
<rect x="88" y="40" width="1" height="1" fill="#AC3232" />
<rect x="85" y="41" width="1" height="1" fill="#AC3232" />
<rect x="86" y="41" width="1" height="1" fill="#AC3232" />
<rect x="87" y="41" width="1" height="1" fill="#AC3232" />
<rect x="88" y="41" width="1" height="1" fill="#AC3232" />
<rect x="89" y="41" width="1" height="1" fill="#AC3232" />
<rect x="85" y="42" width="1" height="1" fill="#AC3232" />
<rect x="86" y="42" width="1" height="1" fill="#AC3232" />
<rect x="87" y="42" width="1" height="1" fill="#AC3232" />
<rect x="88" y="42" width="1" height="1" fill="#AC3232" />
<rect x="89" y="42" width="1" height="1" fill="#AC3232" />
<rect x="28" y="43" width="1" height="1" fill="#37946E" />
<rect x="29" y="43" width="1" height="1" fill="#37946E" />
<rect x="30" y="43" width="1" height="1" fill="#37946E" />
<rect x="31" y="43" width="1" height="1" fill="#37946E" />
<rect x="85" y="43" width="1" height="1" fill="#AC3232" />
<rect x="86" y="43" width="1" height="1" fill="#AC3232" />
<rect x="87" y="43" width="1" height="1" fill="#AC3232" />
<rect x="88" y="43" width="1" height="1" fill="#AC3232" />
<rect x="89" y="43" width="1" height="1" fill="#AC3232" />
<rect x="25" y="44" width="1" height="1" fill="#37946E" />
<rect x="26" y="44" width="1" height="1" fill="#37946E" />
<rect x="27" y="44" width="1" height="1" fill="#37946E" />
<rect x="28" y="44" width="1" height="1" fill="#37946E" />
<rect x="29" y="44" width="1" height="1" fill="#37946E" />
<rect x="31" y="44" width="1" height="1" fill="#37946E" />
<rect x="32" y="44" width="1" height="1" fill="#37946E" />
<rect x="86" y="44" width="1" height="1" fill="#AC3232" />
<rect x="87" y="44" width="1" height="1" fill="#AC3232" />
<rect x="88" y="44" width="1" height="1" fill="#AC3232" />
<rect x="24" y="45" width="1" height="1" fill="#37946E" />
<rect x="25" y="45" width="1" height="1" fill="#37946E" />
<rect x="26" y="45" width="1" height="1" fill="#37946E" />
<rect x="32" y="45" width="1" height="1" fill="#37946E" />
<rect x="23" y="46" width="1" height="1" fill="#37946E" />
<rect x="24" y="46" width="1" height="1" fill="#37946E" />
<rect x="32" y="46" width="1" height="1" fill="#37946E" />
<rect x="33" y="46" width="1" height="1" fill="#37946E" />
<rect x="22" y="47" width="1" height="1" fill="#37946E" />
<rect x="23" y="47" width="1" height="1" fill="#37946E" />
<rect x="33" y="47" width="1" height="1" fill="#37946E" />
<rect x="34" y="47" width="1" height="1" fill="#37946E" />
<rect x="22" y="48" width="1" height="1" fill="#37946E" />
<rect x="34" y="48" width="1" height="1" fill="#37946E" />
<rect x="22" y="49" width="1" height="1" fill="#37946E" />
<rect x="34" y="49" width="1" height="1" fill="#37946E" />
<rect x="21" y="50" width="1" height="1" fill="#37946E" />
<rect x="22" y="50" width="1" height="1" fill="#37946E" />
<rect x="34" y="50" width="1" height="1" fill="#37946E" />
<rect x="21" y="51" width="1" height="1" fill="#37946E" />
<rect x="22" y="51" width="1" height="1" fill="#37946E" />
<rect x="34" y="51" width="1" height="1" fill="#37946E" />
<rect x="22" y="52" width="1" height="1" fill="#37946E" />
<rect x="23" y="52" width="1" height="1" fill="#37946E" />
<rect x="35" y="52" width="1" height="1" fill="#37946E" />
<rect x="36" y="52" width="1" height="1" fill="#37946E" />
<rect x="23" y="53" width="1" height="1" fill="#37946E" />
<rect x="36" y="53" width="1" height="1" fill="#37946E" />
<rect x="24" y="54" width="1" height="1" fill="#37946E" />
<rect x="61" y="54" width="1" height="1" fill="#AC3232" />
<rect x="62" y="54" width="1" height="1" fill="#AC3232" />
<rect x="63" y="54" width="1" height="1" fill="#AC3232" />
<rect x="24" y="55" width="1" height="1" fill="#37946E" />
<rect x="25" y="55" width="1" height="1" fill="#37946E" />
<rect x="34" y="55" width="1" height="1" fill="#37946E" />
<rect x="35" y="55" width="1" height="1" fill="#37946E" />
<rect x="60" y="55" width="1" height="1" fill="#AC3232" />
<rect x="61" y="55" width="1" height="1" fill="#AC3232" />
<rect x="62" y="55" width="1" height="1" fill="#AC3232" />
<rect x="63" y="55" width="1" height="1" fill="#AC3232" />
<rect x="64" y="55" width="1" height="1" fill="#AC3232" />
<rect x="25" y="56" width="1" height="1" fill="#37946E" />
<rect x="26" y="56" width="1" height="1" fill="#37946E" />
<rect x="33" y="56" width="1" height="1" fill="#37946E" />
<rect x="34" y="56" width="1" height="1" fill="#37946E" />
<rect x="60" y="56" width="1" height="1" fill="#AC3232" />
<rect x="61" y="56" width="1" height="1" fill="#AC3232" />
<rect x="62" y="56" width="1" height="1" fill="#AC3232" />
<rect x="63" y="56" width="1" height="1" fill="#AC3232" />
<rect x="64" y="56" width="1" height="1" fill="#AC3232" />
<rect x="26" y="57" width="1" height="1" fill="#37946E" />
<rect x="27" y="57" width="1" height="1" fill="#37946E" />
<rect x="32" y="57" width="1" height="1" fill="#37946E" />
<rect x="33" y="57" width="1" height="1" fill="#37946E" />
<rect x="60" y="57" width="1" height="1" fill="#AC3232" />
<rect x="61" y="57" width="1" height="1" fill="#AC3232" />
<rect x="62" y="57" width="1" height="1" fill="#AC3232" />
<rect x="63" y="57" width="1" height="1" fill="#AC3232" />
<rect x="64" y="57" width="1" height="1" fill="#AC3232" />
<rect x="29" y="58" width="1" height="1" fill="#37946E" />
<rect x="30" y="58" width="1" height="1" fill="#37946E" />
<rect x="31" y="58" width="1" height="1" fill="#37946E" />
<rect x="61" y="58" width="1" height="1" fill="#AC3232" />
<rect x="62" y="58" width="1" height="1" fill="#AC3232" />
<rect x="63" y="58" width="1" height="1" fill="#AC3232" />
<rect x="47" y="68" width="1" height="1" fill="#AC3232" />
<rect x="48" y="68" width="1" height="1" fill="#AC3232" />
<rect x="45" y="69" width="1" height="1" fill="#AC3232" />
<rect x="46" y="69" width="1" height="1" fill="#AC3232" />
<rect x="47" y="69" width="1" height="1" fill="#AC3232" />
<rect x="48" y="69" width="1" height="1" fill="#AC3232" />
<rect x="44" y="70" width="1" height="1" fill="#AC3232" />
<rect x="45" y="70" width="1" height="1" fill="#AC3232" />
<rect x="46" y="70" width="1" height="1" fill="#AC3232" />
<rect x="47" y="70" width="1" height="1" fill="#AC3232" />
<rect x="48" y="70" width="1" height="1" fill="#AC3232" />
<rect x="43" y="71" width="1" height="1" fill="#AC3232" />
<rect x="44" y="71" width="1" height="1" fill="#AC3232" />
<rect x="45" y="71" width="1" height="1" fill="#AC3232" />
<rect x="46" y="71" width="1" height="1" fill="#AC3232" />
<rect x="47" y="71" width="1" height="1" fill="#AC3232" />
<rect x="48" y="71" width="1" height="1" fill="#AC3232" />
<rect x="41" y="72" width="1" height="1" fill="#AC3232" />
<rect x="42" y="72" width="1" height="1" fill="#AC3232" />
<rect x="43" y="72" width="1" height="1" fill="#AC3232" />
<rect x="44" y="72" width="1" height="1" fill="#AC3232" />
<rect x="45" y="72" width="1" height="1" fill="#AC3232" />
<rect x="46" y="72" width="1" height="1" fill="#AC3232" />
<rect x="47" y="72" width="1" height="1" fill="#AC3232" />
<rect x="40" y="73" width="1" height="1" fill="#AC3232" />
<rect x="41" y="73" width="1" height="1" fill="#AC3232" />
<rect x="42" y="73" width="1" height="1" fill="#AC3232" />
<rect x="43" y="73" width="1" height="1" fill="#AC3232" />
<rect x="44" y="73" width="1" height="1" fill="#AC3232" />
<rect x="45" y="73" width="1" height="1" fill="#AC3232" />
<rect x="46" y="73" width="1" height="1" fill="#AC3232" />
<rect x="39" y="74" width="1" height="1" fill="#AC3232" />
<rect x="40" y="74" width="1" height="1" fill="#AC3232" />
<rect x="41" y="74" width="1" height="1" fill="#AC3232" />
<rect x="42" y="74" width="1" height="1" fill="#AC3232" />
<rect x="43" y="74" width="1" height="1" fill="#AC3232" />
<rect x="44" y="74" width="1" height="1" fill="#AC3232" />
<rect x="45" y="74" width="1" height="1" fill="#AC3232" />
<rect x="46" y="74" width="1" height="1" fill="#AC3232" />
<rect x="35" y="75" width="1" height="1" fill="#AC3232" />
<rect x="36" y="75" width="1" height="1" fill="#AC3232" />
<rect x="37" y="75" width="1" height="1" fill="#AC3232" />
<rect x="38" y="75" width="1" height="1" fill="#AC3232" />
<rect x="39" y="75" width="1" height="1" fill="#AC3232" />
<rect x="40" y="75" width="1" height="1" fill="#AC3232" />
<rect x="41" y="75" width="1" height="1" fill="#AC3232" />
<rect x="42" y="75" width="1" height="1" fill="#AC3232" />
<rect x="43" y="75" width="1" height="1" fill="#AC3232" />
<rect x="44" y="75" width="1" height="1" fill="#AC3232" />
<rect x="45" y="75" width="1" height="1" fill="#AC3232" />
<rect x="46" y="75" width="1" height="1" fill="#AC3232" />
<rect x="31" y="76" width="1" height="1" fill="#AC3232" />
<rect x="32" y="76" width="1" height="1" fill="#AC3232" />
<rect x="33" y="76" width="1" height="1" fill="#AC3232" />
<rect x="34" y="76" width="1" height="1" fill="#AC3232" />
<rect x="35" y="76" width="1" height="1" fill="#AC3232" />
<rect x="36" y="76" width="1" height="1" fill="#AC3232" />
<rect x="37" y="76" width="1" height="1" fill="#AC3232" />
<rect x="38" y="76" width="1" height="1" fill="#AC3232" />
<rect x="39" y="76" width="1" height="1" fill="#AC3232" />
<rect x="40" y="76" width="1" height="1" fill="#AC3232" />
<rect x="41" y="76" width="1" height="1" fill="#AC3232" />
<rect x="42" y="76" width="1" height="1" fill="#AC3232" />
<rect x="43" y="76" width="1" height="1" fill="#AC3232" />
<rect x="44" y="76" width="1" height="1" fill="#AC3232" />
<rect x="45" y="76" width="1" height="1" fill="#AC3232" />
<rect x="86" y="76" width="1" height="1" fill="#37946E" />
<rect x="87" y="76" width="1" height="1" fill="#37946E" />
<rect x="88" y="76" width="1" height="1" fill="#37946E" />
<rect x="89" y="76" width="1" height="1" fill="#37946E" />
<rect x="90" y="76" width="1" height="1" fill="#37946E" />
<rect x="91" y="76" width="1" height="1" fill="#37946E" />
<rect x="92" y="76" width="1" height="1" fill="#37946E" />
<rect x="93" y="76" width="1" height="1" fill="#37946E" />
<rect x="94" y="76" width="1" height="1" fill="#37946E" />
<rect x="95" y="76" width="1" height="1" fill="#37946E" />
<rect x="96" y="76" width="1" height="1" fill="#37946E" />
<rect x="97" y="76" width="1" height="1" fill="#37946E" />
<rect x="98" y="76" width="1" height="1" fill="#37946E" />
<rect x="29" y="77" width="1" height="1" fill="#AC3232" />
<rect x="30" y="77" width="1" height="1" fill="#AC3232" />
<rect x="31" y="77" width="1" height="1" fill="#AC3232" />
<rect x="32" y="77" width="1" height="1" fill="#AC3232" />
<rect x="33" y="77" width="1" height="1" fill="#AC3232" />
<rect x="34" y="77" width="1" height="1" fill="#AC3232" />
<rect x="35" y="77" width="1" height="1" fill="#AC3232" />
<rect x="36" y="77" width="1" height="1" fill="#AC3232" />
<rect x="37" y="77" width="1" height="1" fill="#AC3232" />
<rect x="38" y="77" width="1" height="1" fill="#AC3232" />
<rect x="39" y="77" width="1" height="1" fill="#AC3232" />
<rect x="40" y="77" width="1" height="1" fill="#AC3232" />
<rect x="41" y="77" width="1" height="1" fill="#AC3232" />
<rect x="42" y="77" width="1" height="1" fill="#AC3232" />
<rect x="43" y="77" width="1" height="1" fill="#AC3232" />
<rect x="44" y="77" width="1" height="1" fill="#AC3232" />
<rect x="45" y="77" width="1" height="1" fill="#AC3232" />
<rect x="85" y="77" width="1" height="1" fill="#37946E" />
<rect x="86" y="77" width="1" height="1" fill="#37946E" />
<rect x="98" y="77" width="1" height="1" fill="#37946E" />
<rect x="99" y="77" width="1" height="1" fill="#37946E" />
<rect x="100" y="77" width="1" height="1" fill="#37946E" />
<rect x="101" y="77" width="1" height="1" fill="#37946E" />
<rect x="102" y="77" width="1" height="1" fill="#37946E" />
<rect x="103" y="77" width="1" height="1" fill="#37946E" />
<rect x="104" y="77" width="1" height="1" fill="#37946E" />
<rect x="25" y="78" width="1" height="1" fill="#AC3232" />
<rect x="26" y="78" width="1" height="1" fill="#AC3232" />
<rect x="27" y="78" width="1" height="1" fill="#AC3232" />
<rect x="28" y="78" width="1" height="1" fill="#AC3232" />
<rect x="29" y="78" width="1" height="1" fill="#AC3232" />
<rect x="30" y="78" width="1" height="1" fill="#AC3232" />
<rect x="31" y="78" width="1" height="1" fill="#AC3232" />
<rect x="32" y="78" width="1" height="1" fill="#AC3232" />
<rect x="33" y="78" width="1" height="1" fill="#AC3232" />
<rect x="34" y="78" width="1" height="1" fill="#AC3232" />
<rect x="35" y="78" width="1" height="1" fill="#AC3232" />
<rect x="36" y="78" width="1" height="1" fill="#AC3232" />
<rect x="37" y="78" width="1" height="1" fill="#AC3232" />
<rect x="38" y="78" width="1" height="1" fill="#AC3232" />
<rect x="39" y="78" width="1" height="1" fill="#AC3232" />
<rect x="40" y="78" width="1" height="1" fill="#AC3232" />
<rect x="41" y="78" width="1" height="1" fill="#AC3232" />
<rect x="42" y="78" width="1" height="1" fill="#AC3232" />
<rect x="43" y="78" width="1" height="1" fill="#AC3232" />
<rect x="44" y="78" width="1" height="1" fill="#AC3232" />
<rect x="82" y="78" width="1" height="1" fill="#37946E" />
<rect x="83" y="78" width="1" height="1" fill="#37946E" />
<rect x="84" y="78" width="1" height="1" fill="#37946E" />
<rect x="104" y="78" width="1" height="1" fill="#37946E" />
<rect x="105" y="78" width="1" height="1" fill="#37946E" />
<rect x="106" y="78" width="1" height="1" fill="#37946E" />
<rect x="24" y="79" width="1" height="1" fill="#AC3232" />
<rect x="25" y="79" width="1" height="1" fill="#AC3232" />
<rect x="26" y="79" width="1" height="1" fill="#AC3232" />
<rect x="27" y="79" width="1" height="1" fill="#AC3232" />
<rect x="28" y="79" width="1" height="1" fill="#AC3232" />
<rect x="29" y="79" width="1" height="1" fill="#AC3232" />
<rect x="30" y="79" width="1" height="1" fill="#AC3232" />
<rect x="31" y="79" width="1" height="1" fill="#AC3232" />
<rect x="32" y="79" width="1" height="1" fill="#AC3232" />
<rect x="33" y="79" width="1" height="1" fill="#AC3232" />
<rect x="34" y="79" width="1" height="1" fill="#AC3232" />
<rect x="35" y="79" width="1" height="1" fill="#AC3232" />
<rect x="36" y="79" width="1" height="1" fill="#AC3232" />
<rect x="37" y="79" width="1" height="1" fill="#AC3232" />
<rect x="38" y="79" width="1" height="1" fill="#AC3232" />
<rect x="39" y="79" width="1" height="1" fill="#AC3232" />
<rect x="40" y="79" width="1" height="1" fill="#AC3232" />
<rect x="41" y="79" width="1" height="1" fill="#AC3232" />
<rect x="42" y="79" width="1" height="1" fill="#AC3232" />
<rect x="43" y="79" width="1" height="1" fill="#AC3232" />
<rect x="44" y="79" width="1" height="1" fill="#AC3232" />
<rect x="80" y="79" width="1" height="1" fill="#37946E" />
<rect x="81" y="79" width="1" height="1" fill="#37946E" />
<rect x="82" y="79" width="1" height="1" fill="#37946E" />
<rect x="106" y="79" width="1" height="1" fill="#37946E" />
<rect x="24" y="80" width="1" height="1" fill="#AC3232" />
<rect x="25" y="80" width="1" height="1" fill="#AC3232" />
<rect x="26" y="80" width="1" height="1" fill="#AC3232" />
<rect x="27" y="80" width="1" height="1" fill="#AC3232" />
<rect x="28" y="80" width="1" height="1" fill="#AC3232" />
<rect x="29" y="80" width="1" height="1" fill="#AC3232" />
<rect x="30" y="80" width="1" height="1" fill="#AC3232" />
<rect x="31" y="80" width="1" height="1" fill="#AC3232" />
<rect x="32" y="80" width="1" height="1" fill="#AC3232" />
<rect x="33" y="80" width="1" height="1" fill="#AC3232" />
<rect x="34" y="80" width="1" height="1" fill="#AC3232" />
<rect x="35" y="80" width="1" height="1" fill="#AC3232" />
<rect x="36" y="80" width="1" height="1" fill="#AC3232" />
<rect x="37" y="80" width="1" height="1" fill="#AC3232" />
<rect x="38" y="80" width="1" height="1" fill="#AC3232" />
<rect x="39" y="80" width="1" height="1" fill="#AC3232" />
<rect x="40" y="80" width="1" height="1" fill="#AC3232" />
<rect x="41" y="80" width="1" height="1" fill="#AC3232" />
<rect x="42" y="80" width="1" height="1" fill="#AC3232" />
<rect x="43" y="80" width="1" height="1" fill="#AC3232" />
<rect x="44" y="80" width="1" height="1" fill="#AC3232" />
<rect x="79" y="80" width="1" height="1" fill="#37946E" />
<rect x="106" y="80" width="1" height="1" fill="#37946E" />
<rect x="24" y="81" width="1" height="1" fill="#AC3232" />
<rect x="25" y="81" width="1" height="1" fill="#AC3232" />
<rect x="26" y="81" width="1" height="1" fill="#AC3232" />
<rect x="27" y="81" width="1" height="1" fill="#AC3232" />
<rect x="28" y="81" width="1" height="1" fill="#AC3232" />
<rect x="29" y="81" width="1" height="1" fill="#AC3232" />
<rect x="30" y="81" width="1" height="1" fill="#AC3232" />
<rect x="31" y="81" width="1" height="1" fill="#AC3232" />
<rect x="32" y="81" width="1" height="1" fill="#AC3232" />
<rect x="33" y="81" width="1" height="1" fill="#AC3232" />
<rect x="34" y="81" width="1" height="1" fill="#AC3232" />
<rect x="35" y="81" width="1" height="1" fill="#AC3232" />
<rect x="36" y="81" width="1" height="1" fill="#AC3232" />
<rect x="37" y="81" width="1" height="1" fill="#AC3232" />
<rect x="38" y="81" width="1" height="1" fill="#AC3232" />
<rect x="39" y="81" width="1" height="1" fill="#AC3232" />
<rect x="40" y="81" width="1" height="1" fill="#AC3232" />
<rect x="41" y="81" width="1" height="1" fill="#AC3232" />
<rect x="42" y="81" width="1" height="1" fill="#AC3232" />
<rect x="43" y="81" width="1" height="1" fill="#AC3232" />
<rect x="44" y="81" width="1" height="1" fill="#AC3232" />
<rect x="78" y="81" width="1" height="1" fill="#37946E" />
<rect x="79" y="81" width="1" height="1" fill="#37946E" />
<rect x="106" y="81" width="1" height="1" fill="#37946E" />
<rect x="25" y="82" width="1" height="1" fill="#AC3232" />
<rect x="26" y="82" width="1" height="1" fill="#AC3232" />
<rect x="27" y="82" width="1" height="1" fill="#AC3232" />
<rect x="28" y="82" width="1" height="1" fill="#AC3232" />
<rect x="29" y="82" width="1" height="1" fill="#AC3232" />
<rect x="30" y="82" width="1" height="1" fill="#AC3232" />
<rect x="31" y="82" width="1" height="1" fill="#AC3232" />
<rect x="32" y="82" width="1" height="1" fill="#AC3232" />
<rect x="33" y="82" width="1" height="1" fill="#AC3232" />
<rect x="34" y="82" width="1" height="1" fill="#AC3232" />
<rect x="35" y="82" width="1" height="1" fill="#AC3232" />
<rect x="36" y="82" width="1" height="1" fill="#AC3232" />
<rect x="37" y="82" width="1" height="1" fill="#AC3232" />
<rect x="38" y="82" width="1" height="1" fill="#AC3232" />
<rect x="39" y="82" width="1" height="1" fill="#AC3232" />
<rect x="40" y="82" width="1" height="1" fill="#AC3232" />
<rect x="41" y="82" width="1" height="1" fill="#AC3232" />
<rect x="42" y="82" width="1" height="1" fill="#AC3232" />
<rect x="43" y="82" width="1" height="1" fill="#AC3232" />
<rect x="44" y="82" width="1" height="1" fill="#AC3232" />
<rect x="78" y="82" width="1" height="1" fill="#37946E" />
<rect x="106" y="82" width="1" height="1" fill="#37946E" />
<rect x="26" y="83" width="1" height="1" fill="#AC3232" />
<rect x="27" y="83" width="1" height="1" fill="#AC3232" />
<rect x="28" y="83" width="1" height="1" fill="#AC3232" />
<rect x="29" y="83" width="1" height="1" fill="#AC3232" />
<rect x="30" y="83" width="1" height="1" fill="#AC3232" />
<rect x="31" y="83" width="1" height="1" fill="#AC3232" />
<rect x="32" y="83" width="1" height="1" fill="#AC3232" />
<rect x="33" y="83" width="1" height="1" fill="#AC3232" />
<rect x="34" y="83" width="1" height="1" fill="#AC3232" />
<rect x="35" y="83" width="1" height="1" fill="#AC3232" />
<rect x="36" y="83" width="1" height="1" fill="#AC3232" />
<rect x="37" y="83" width="1" height="1" fill="#AC3232" />
<rect x="38" y="83" width="1" height="1" fill="#AC3232" />
<rect x="39" y="83" width="1" height="1" fill="#AC3232" />
<rect x="40" y="83" width="1" height="1" fill="#AC3232" />
<rect x="41" y="83" width="1" height="1" fill="#AC3232" />
<rect x="42" y="83" width="1" height="1" fill="#AC3232" />
<rect x="43" y="83" width="1" height="1" fill="#AC3232" />
<rect x="78" y="83" width="1" height="1" fill="#37946E" />
<rect x="106" y="83" width="1" height="1" fill="#37946E" />
<rect x="28" y="84" width="1" height="1" fill="#AC3232" />
<rect x="29" y="84" width="1" height="1" fill="#AC3232" />
<rect x="30" y="84" width="1" height="1" fill="#AC3232" />
<rect x="31" y="84" width="1" height="1" fill="#AC3232" />
<rect x="32" y="84" width="1" height="1" fill="#AC3232" />
<rect x="33" y="84" width="1" height="1" fill="#AC3232" />
<rect x="34" y="84" width="1" height="1" fill="#AC3232" />
<rect x="35" y="84" width="1" height="1" fill="#AC3232" />
<rect x="36" y="84" width="1" height="1" fill="#AC3232" />
<rect x="37" y="84" width="1" height="1" fill="#AC3232" />
<rect x="38" y="84" width="1" height="1" fill="#AC3232" />
<rect x="39" y="84" width="1" height="1" fill="#AC3232" />
<rect x="40" y="84" width="1" height="1" fill="#AC3232" />
<rect x="41" y="84" width="1" height="1" fill="#AC3232" />
<rect x="42" y="84" width="1" height="1" fill="#AC3232" />
<rect x="43" y="84" width="1" height="1" fill="#AC3232" />
<rect x="78" y="84" width="1" height="1" fill="#37946E" />
<rect x="105" y="84" width="1" height="1" fill="#37946E" />
<rect x="106" y="84" width="1" height="1" fill="#37946E" />
<rect x="29" y="85" width="1" height="1" fill="#AC3232" />
<rect x="30" y="85" width="1" height="1" fill="#AC3232" />
<rect x="31" y="85" width="1" height="1" fill="#AC3232" />
<rect x="32" y="85" width="1" height="1" fill="#AC3232" />
<rect x="33" y="85" width="1" height="1" fill="#AC3232" />
<rect x="34" y="85" width="1" height="1" fill="#AC3232" />
<rect x="35" y="85" width="1" height="1" fill="#AC3232" />
<rect x="36" y="85" width="1" height="1" fill="#AC3232" />
<rect x="37" y="85" width="1" height="1" fill="#AC3232" />
<rect x="38" y="85" width="1" height="1" fill="#AC3232" />
<rect x="39" y="85" width="1" height="1" fill="#AC3232" />
<rect x="40" y="85" width="1" height="1" fill="#AC3232" />
<rect x="41" y="85" width="1" height="1" fill="#AC3232" />
<rect x="42" y="85" width="1" height="1" fill="#AC3232" />
<rect x="43" y="85" width="1" height="1" fill="#AC3232" />
<rect x="78" y="85" width="1" height="1" fill="#37946E" />
<rect x="105" y="85" width="1" height="1" fill="#37946E" />
<rect x="30" y="86" width="1" height="1" fill="#AC3232" />
<rect x="31" y="86" width="1" height="1" fill="#AC3232" />
<rect x="32" y="86" width="1" height="1" fill="#AC3232" />
<rect x="33" y="86" width="1" height="1" fill="#AC3232" />
<rect x="34" y="86" width="1" height="1" fill="#AC3232" />
<rect x="35" y="86" width="1" height="1" fill="#AC3232" />
<rect x="36" y="86" width="1" height="1" fill="#AC3232" />
<rect x="37" y="86" width="1" height="1" fill="#AC3232" />
<rect x="38" y="86" width="1" height="1" fill="#AC3232" />
<rect x="39" y="86" width="1" height="1" fill="#AC3232" />
<rect x="40" y="86" width="1" height="1" fill="#AC3232" />
<rect x="41" y="86" width="1" height="1" fill="#AC3232" />
<rect x="42" y="86" width="1" height="1" fill="#AC3232" />
<rect x="43" y="86" width="1" height="1" fill="#AC3232" />
<rect x="44" y="86" width="1" height="1" fill="#AC3232" />
<rect x="78" y="86" width="1" height="1" fill="#37946E" />
<rect x="104" y="86" width="1" height="1" fill="#37946E" />
<rect x="105" y="86" width="1" height="1" fill="#37946E" />
<rect x="31" y="87" width="1" height="1" fill="#AC3232" />
<rect x="32" y="87" width="1" height="1" fill="#AC3232" />
<rect x="33" y="87" width="1" height="1" fill="#AC3232" />
<rect x="34" y="87" width="1" height="1" fill="#AC3232" />
<rect x="35" y="87" width="1" height="1" fill="#AC3232" />
<rect x="36" y="87" width="1" height="1" fill="#AC3232" />
<rect x="37" y="87" width="1" height="1" fill="#AC3232" />
<rect x="38" y="87" width="1" height="1" fill="#AC3232" />
<rect x="39" y="87" width="1" height="1" fill="#AC3232" />
<rect x="40" y="87" width="1" height="1" fill="#AC3232" />
<rect x="41" y="87" width="1" height="1" fill="#AC3232" />
<rect x="42" y="87" width="1" height="1" fill="#AC3232" />
<rect x="43" y="87" width="1" height="1" fill="#AC3232" />
<rect x="78" y="87" width="1" height="1" fill="#37946E" />
<rect x="79" y="87" width="1" height="1" fill="#37946E" />
<rect x="104" y="87" width="1" height="1" fill="#37946E" />
<rect x="33" y="88" width="1" height="1" fill="#AC3232" />
<rect x="34" y="88" width="1" height="1" fill="#AC3232" />
<rect x="35" y="88" width="1" height="1" fill="#AC3232" />
<rect x="36" y="88" width="1" height="1" fill="#AC3232" />
<rect x="37" y="88" width="1" height="1" fill="#AC3232" />
<rect x="38" y="88" width="1" height="1" fill="#AC3232" />
<rect x="39" y="88" width="1" height="1" fill="#AC3232" />
<rect x="40" y="88" width="1" height="1" fill="#AC3232" />
<rect x="41" y="88" width="1" height="1" fill="#AC3232" />
<rect x="42" y="88" width="1" height="1" fill="#AC3232" />
<rect x="43" y="88" width="1" height="1" fill="#AC3232" />
<rect x="79" y="88" width="1" height="1" fill="#37946E" />
<rect x="104" y="88" width="1" height="1" fill="#37946E" />
<rect x="34" y="89" width="1" height="1" fill="#AC3232" />
<rect x="35" y="89" width="1" height="1" fill="#AC3232" />
<rect x="36" y="89" width="1" height="1" fill="#AC3232" />
<rect x="37" y="89" width="1" height="1" fill="#AC3232" />
<rect x="38" y="89" width="1" height="1" fill="#AC3232" />
<rect x="39" y="89" width="1" height="1" fill="#AC3232" />
<rect x="40" y="89" width="1" height="1" fill="#AC3232" />
<rect x="41" y="89" width="1" height="1" fill="#AC3232" />
<rect x="42" y="89" width="1" height="1" fill="#AC3232" />
<rect x="43" y="89" width="1" height="1" fill="#AC3232" />
<rect x="77" y="89" width="1" height="1" fill="#37946E" />
<rect x="78" y="89" width="1" height="1" fill="#37946E" />
<rect x="79" y="89" width="1" height="1" fill="#37946E" />
<rect x="104" y="89" width="1" height="1" fill="#37946E" />
<rect x="35" y="90" width="1" height="1" fill="#AC3232" />
<rect x="36" y="90" width="1" height="1" fill="#AC3232" />
<rect x="37" y="90" width="1" height="1" fill="#AC3232" />
<rect x="38" y="90" width="1" height="1" fill="#AC3232" />
<rect x="39" y="90" width="1" height="1" fill="#AC3232" />
<rect x="40" y="90" width="1" height="1" fill="#AC3232" />
<rect x="41" y="90" width="1" height="1" fill="#AC3232" />
<rect x="42" y="90" width="1" height="1" fill="#AC3232" />
<rect x="43" y="90" width="1" height="1" fill="#AC3232" />
<rect x="76" y="90" width="1" height="1" fill="#37946E" />
<rect x="77" y="90" width="1" height="1" fill="#37946E" />
<rect x="104" y="90" width="1" height="1" fill="#37946E" />
<rect x="36" y="91" width="1" height="1" fill="#AC3232" />
<rect x="37" y="91" width="1" height="1" fill="#AC3232" />
<rect x="38" y="91" width="1" height="1" fill="#AC3232" />
<rect x="39" y="91" width="1" height="1" fill="#AC3232" />
<rect x="40" y="91" width="1" height="1" fill="#AC3232" />
<rect x="41" y="91" width="1" height="1" fill="#AC3232" />
<rect x="42" y="91" width="1" height="1" fill="#AC3232" />
<rect x="43" y="91" width="1" height="1" fill="#AC3232" />
<rect x="75" y="91" width="1" height="1" fill="#37946E" />
<rect x="76" y="91" width="1" height="1" fill="#37946E" />
<rect x="104" y="91" width="1" height="1" fill="#37946E" />
<rect x="38" y="92" width="1" height="1" fill="#AC3232" />
<rect x="39" y="92" width="1" height="1" fill="#AC3232" />
<rect x="40" y="92" width="1" height="1" fill="#AC3232" />
<rect x="41" y="92" width="1" height="1" fill="#AC3232" />
<rect x="42" y="92" width="1" height="1" fill="#AC3232" />
<rect x="43" y="92" width="1" height="1" fill="#AC3232" />
<rect x="75" y="92" width="1" height="1" fill="#37946E" />
<rect x="104" y="92" width="1" height="1" fill="#37946E" />
<rect x="39" y="93" width="1" height="1" fill="#AC3232" />
<rect x="40" y="93" width="1" height="1" fill="#AC3232" />
<rect x="41" y="93" width="1" height="1" fill="#AC3232" />
<rect x="42" y="93" width="1" height="1" fill="#AC3232" />
<rect x="43" y="93" width="1" height="1" fill="#AC3232" />
<rect x="75" y="93" width="1" height="1" fill="#37946E" />
<rect x="104" y="93" width="1" height="1" fill="#37946E" />
<rect x="40" y="94" width="1" height="1" fill="#AC3232" />
<rect x="41" y="94" width="1" height="1" fill="#AC3232" />
<rect x="42" y="94" width="1" height="1" fill="#AC3232" />
<rect x="43" y="94" width="1" height="1" fill="#AC3232" />
<rect x="75" y="94" width="1" height="1" fill="#37946E" />
<rect x="104" y="94" width="1" height="1" fill="#37946E" />
<rect x="105" y="94" width="1" height="1" fill="#37946E" />
<rect x="75" y="95" width="1" height="1" fill="#37946E" />
<rect x="105" y="95" width="1" height="1" fill="#37946E" />
<rect x="106" y="95" width="1" height="1" fill="#37946E" />
<rect x="75" y="96" width="1" height="1" fill="#37946E" />
<rect x="76" y="96" width="1" height="1" fill="#37946E" />
<rect x="106" y="96" width="1" height="1" fill="#37946E" />
<rect x="76" y="97" width="1" height="1" fill="#37946E" />
<rect x="106" y="97" width="1" height="1" fill="#37946E" />
<rect x="76" y="98" width="1" height="1" fill="#37946E" />
<rect x="106" y="98" width="1" height="1" fill="#37946E" />
<rect x="76" y="99" width="1" height="1" fill="#37946E" />
<rect x="105" y="99" width="1" height="1" fill="#37946E" />
<rect x="106" y="99" width="1" height="1" fill="#37946E" />
<rect x="76" y="100" width="1" height="1" fill="#37946E" />
<rect x="105" y="100" width="1" height="1" fill="#37946E" />
<rect x="76" y="101" width="1" height="1" fill="#37946E" />
<rect x="77" y="101" width="1" height="1" fill="#37946E" />
<rect x="105" y="101" width="1" height="1" fill="#37946E" />
<rect x="77" y="102" width="1" height="1" fill="#37946E" />
<rect x="104" y="102" width="1" height="1" fill="#37946E" />
<rect x="105" y="102" width="1" height="1" fill="#37946E" />
<rect x="77" y="103" width="1" height="1" fill="#37946E" />
<rect x="78" y="103" width="1" height="1" fill="#37946E" />
<rect x="87" y="103" width="1" height="1" fill="#37946E" />
<rect x="88" y="103" width="1" height="1" fill="#37946E" />
<rect x="89" y="103" width="1" height="1" fill="#37946E" />
<rect x="90" y="103" width="1" height="1" fill="#37946E" />
<rect x="91" y="103" width="1" height="1" fill="#37946E" />
<rect x="104" y="103" width="1" height="1" fill="#37946E" />
<rect x="78" y="104" width="1" height="1" fill="#37946E" />
<rect x="79" y="104" width="1" height="1" fill="#37946E" />
<rect x="86" y="104" width="1" height="1" fill="#37946E" />
<rect x="87" y="104" width="1" height="1" fill="#37946E" />
<rect x="91" y="104" width="1" height="1" fill="#37946E" />
<rect x="92" y="104" width="1" height="1" fill="#37946E" />
<rect x="102" y="104" width="1" height="1" fill="#37946E" />
<rect x="103" y="104" width="1" height="1" fill="#37946E" />
<rect x="79" y="105" width="1" height="1" fill="#37946E" />
<rect x="80" y="105" width="1" height="1" fill="#37946E" />
<rect x="85" y="105" width="1" height="1" fill="#37946E" />
<rect x="86" y="105" width="1" height="1" fill="#37946E" />
<rect x="92" y="105" width="1" height="1" fill="#37946E" />
<rect x="93" y="105" width="1" height="1" fill="#37946E" />
<rect x="101" y="105" width="1" height="1" fill="#37946E" />
<rect x="102" y="105" width="1" height="1" fill="#37946E" />
<rect x="80" y="106" width="1" height="1" fill="#37946E" />
<rect x="81" y="106" width="1" height="1" fill="#37946E" />
<rect x="84" y="106" width="1" height="1" fill="#37946E" />
<rect x="85" y="106" width="1" height="1" fill="#37946E" />
<rect x="94" y="106" width="1" height="1" fill="#37946E" />
<rect x="95" y="106" width="1" height="1" fill="#37946E" />
<rect x="96" y="106" width="1" height="1" fill="#37946E" />
<rect x="97" y="106" width="1" height="1" fill="#37946E" />
<rect x="100" y="106" width="1" height="1" fill="#37946E" />
<rect x="101" y="106" width="1" height="1" fill="#37946E" />
<rect x="18" y="107" width="1" height="1" fill="#37946E" />
<rect x="19" y="107" width="1" height="1" fill="#37946E" />
<rect x="20" y="107" width="1" height="1" fill="#37946E" />
<rect x="21" y="107" width="1" height="1" fill="#37946E" />
<rect x="82" y="107" width="1" height="1" fill="#37946E" />
<rect x="83" y="107" width="1" height="1" fill="#37946E" />
<rect x="84" y="107" width="1" height="1" fill="#37946E" />
<rect x="98" y="107" width="1" height="1" fill="#37946E" />
<rect x="99" y="107" width="1" height="1" fill="#37946E" />
<rect x="100" y="107" width="1" height="1" fill="#37946E" />
<rect x="17" y="108" width="1" height="1" fill="#37946E" />
<rect x="18" y="108" width="1" height="1" fill="#37946E" />
<rect x="21" y="108" width="1" height="1" fill="#37946E" />
<rect x="22" y="108" width="1" height="1" fill="#37946E" />
<rect x="17" y="109" width="1" height="1" fill="#37946E" />
<rect x="22" y="109" width="1" height="1" fill="#37946E" />
<rect x="23" y="109" width="1" height="1" fill="#37946E" />
<rect x="16" y="110" width="1" height="1" fill="#37946E" />
<rect x="17" y="110" width="1" height="1" fill="#37946E" />
<rect x="23" y="110" width="1" height="1" fill="#37946E" />
<rect x="16" y="111" width="1" height="1" fill="#37946E" />
<rect x="23" y="111" width="1" height="1" fill="#37946E" />
<rect x="16" y="112" width="1" height="1" fill="#37946E" />
<rect x="23" y="112" width="1" height="1" fill="#37946E" />
<rect x="16" y="113" width="1" height="1" fill="#37946E" />
<rect x="17" y="113" width="1" height="1" fill="#37946E" />
<rect x="18" y="113" width="1" height="1" fill="#37946E" />
<rect x="21" y="113" width="1" height="1" fill="#37946E" />
<rect x="22" y="113" width="1" height="1" fill="#37946E" />
<rect x="18" y="114" width="1" height="1" fill="#37946E" />
<rect x="19" y="114" width="1" height="1" fill="#37946E" />
<rect x="20" y="114" width="1" height="1" fill="#37946E" />
<rect x="21" y="114" width="1" height="1" fill="#37946E" />
</svg>